<?xml version="1.0" encoding="utf-8"?>
<!-- Generator: Adobe Illustrator 28.0.0, SVG Export Plug-In . SVG Version: 6.00 Build 0)  -->
<svg version="1.1" id="图层_1" xmlns="http://www.w3.org/2000/svg" xmlns:xlink="http://www.w3.org/1999/xlink" x="0px" y="0px"
	 viewBox="0 0 2326.6 2436" style="enable-background:new 0 0 2326.6 2436;" xml:space="preserve">
<style type="text/css">
	.st0{fill:#040000;}
</style>
<g>
	<g>
		<polygon class="st0" points="1163.3,338.2 900.3,791.9 1426.2,791.9 		"/>
		<polygon class="st0" points="858.4,791.9 742.1,791.9 742.1,504.1 858.4,469.4 		"/>
		<polygon class="st0" points="1468.2,791.9 1584.4,791.9 1584.4,504.1 1468.2,469.4 		"/>
	</g>
	<g>
		<path d="M751.7,872.4c2.6,2.9,5.1,5.1,7.6,6.5c2.5,1.4,5,2.2,7.5,2.2c2.3,0,4.2-0.6,5.7-1.9c1.5-1.2,2.2-2.8,2.2-4.7
			c0-2.1-0.6-3.7-1.9-4.9c-1.3-1.1-4.2-2.3-8.7-3.5c-6.2-1.7-10.6-3.8-13.1-6.5s-3.8-6.4-3.8-11c0-6.1,2-11,6.1-14.8
			c4-3.8,9.3-5.7,15.8-5.7c3.5,0,6.8,0.5,9.9,1.4c3.1,0.9,6.1,2.4,8.9,4.3l-5.4,12.4c-2-1.7-4-2.9-6-3.8c-2.1-0.8-4.1-1.3-6.1-1.3
			c-2.1,0-3.8,0.5-5.1,1.5c-1.3,1-1.9,2.3-1.9,3.8c0,1.6,0.6,2.9,1.7,3.8c1.1,1,3.3,1.9,6.6,2.7l0.8,0.2c7,1.9,11.7,4,13.9,6.3
			c1.5,1.6,2.6,3.4,3.4,5.6s1.2,4.6,1.2,7.2c0,6.7-2.2,12.1-6.6,16.2c-4.4,4.1-10.3,6.1-17.6,6.1c-4.4,0-8.4-0.8-12-2.2
			c-3.6-1.5-7.1-3.8-10.4-7L751.7,872.4z"/>
		<path d="M890.7,892.8v-63.3h17.3v24.6h23v-24.6h17.3v63.3h-17.3V867h-23v25.8H890.7z"/>
		<path d="M1044.6,892.8l21.8-63.3h21.6l21.9,63.3h-17.2l-3.2-11.3H1065l-3.3,11.3H1044.6z M1068.7,869.2h17.2l-6.4-20.9
			c-0.2-0.6-0.5-1.7-0.8-3.1c-0.3-1.4-0.8-3.2-1.3-5.4c-0.4,1.6-0.7,3-1.1,4.5s-0.7,2.8-1.1,4.1L1068.7,869.2z"/>
		<path d="M1206.3,892.8v-63.3h16.6l23.9,32.6c0.5,0.7,1.2,2,2.3,4c1.1,2,2.2,4.4,3.5,7.2c-0.3-2.6-0.6-5-0.8-7s-0.2-3.9-0.2-5.4
			v-31.3h16.6v63.3h-16.6l-23.9-32.7c-0.5-0.7-1.3-2-2.3-4c-1.1-2-2.2-4.4-3.4-7.1c0.3,2.7,0.6,5,0.8,7c0.2,2,0.2,3.9,0.2,5.4v31.3
			H1206.3z"/>
		<path d="M1388.2,892.8h-16.2v-63.3h18c7.1,0,12,0.3,14.9,1c2.9,0.7,5.3,1.9,7.3,3.5c2.3,1.9,4.1,4.3,5.3,7.2
			c1.2,2.9,1.8,6.1,1.8,9.7c0,3.8-0.6,7.1-1.8,10c-1.2,2.9-3,5.2-5.4,7.1c-1.8,1.4-3.9,2.4-6.3,3c-2.4,0.6-6.3,0.9-11.6,0.9h-2.9
			h-3.1V892.8z M1388.2,858h3.3c4.2,0,7-0.6,8.7-1.7c1.6-1.1,2.5-3.1,2.5-5.8c0-2.7-0.8-4.5-2.4-5.7c-1.6-1.1-4.5-1.7-8.6-1.7h-3.5
			V858z"/>
		<path d="M1518.1,829.5h17.2v30.8c0,4.5,0.1,7.8,0.3,9.8c0.2,2,0.6,3.6,1.2,5c0.7,1.6,1.8,2.8,3.5,3.7c1.6,0.9,3.6,1.3,6,1.3
			c2.4,0,4.4-0.4,6-1.3c1.6-0.9,2.8-2.1,3.5-3.7c0.5-1.3,0.9-3,1.2-5s0.3-5.2,0.3-9.8V856v-26.5h17.2V863c0,6.9-0.4,12.1-1.3,15.4
			c-0.8,3.3-2.2,6.1-4.2,8.5c-2.2,2.6-5.1,4.5-8.9,5.8c-3.8,1.3-8.4,1.9-13.8,1.9c-5.4,0-10-0.6-13.8-1.9c-3.8-1.3-6.7-3.2-8.9-5.8
			c-2-2.3-3.4-5.2-4.2-8.5c-0.9-3.3-1.3-8.4-1.3-15.4v-6.6V829.5z"/>
	</g>
</g>
<g>
	<g>
		<polygon class="st0" points="1163.3,1447.5 934.6,1901.2 1391.9,1901.2 		"/>
		<polygon class="st0" points="811.5,1669.7 750.6,1901.2 872.5,1901.2 		"/>
		<polygon class="st0" points="1517.8,1549.7 1448.3,1901.2 1587.3,1901.2 		"/>
	</g>
	<g>
		<path d="M751.7,1981.7c2.6,2.9,5.1,5.1,7.6,6.5c2.5,1.4,5,2.2,7.5,2.2c2.3,0,4.2-0.6,5.7-1.9c1.5-1.2,2.2-2.8,2.2-4.7
			c0-2.1-0.6-3.7-1.9-4.9c-1.3-1.1-4.2-2.3-8.7-3.5c-6.2-1.7-10.6-3.8-13.1-6.5s-3.8-6.4-3.8-11c0-6.1,2-11,6.1-14.8
			c4-3.8,9.3-5.7,15.8-5.7c3.5,0,6.8,0.5,9.9,1.4c3.1,0.9,6.1,2.4,8.9,4.3l-5.4,12.4c-2-1.7-4-2.9-6-3.8c-2.1-0.8-4.1-1.3-6.1-1.3
			c-2.1,0-3.8,0.5-5.1,1.5c-1.3,1-1.9,2.3-1.9,3.8c0,1.6,0.6,2.9,1.7,3.8c1.1,1,3.3,1.9,6.6,2.7l0.8,0.2c7,1.9,11.7,4,13.9,6.3
			c1.5,1.6,2.6,3.4,3.4,5.6s1.2,4.6,1.2,7.2c0,6.7-2.2,12.1-6.6,16.2c-4.4,4.1-10.3,6.1-17.6,6.1c-4.4,0-8.4-0.8-12-2.2
			c-3.6-1.5-7.1-3.8-10.4-7L751.7,1981.7z"/>
		<path d="M890.7,2002.2v-63.3h17.3v24.6h23v-24.6h17.3v63.3h-17.3v-25.8h-23v25.8H890.7z"/>
		<path d="M1044.6,2002.2l21.8-63.3h21.6l21.9,63.3h-17.2l-3.2-11.3H1065l-3.3,11.3H1044.6z M1068.7,1978.5h17.2l-6.4-20.9
			c-0.2-0.6-0.5-1.7-0.8-3.1c-0.3-1.4-0.8-3.2-1.3-5.4c-0.4,1.6-0.7,3-1.1,4.5s-0.7,2.8-1.1,4.1L1068.7,1978.5z"/>
		<path d="M1206.3,2002.2v-63.3h16.6l23.9,32.6c0.5,0.7,1.2,2,2.3,4c1.1,2,2.2,4.4,3.5,7.2c-0.3-2.6-0.6-5-0.8-7s-0.2-3.9-0.2-5.4
			v-31.3h16.6v63.3h-16.6l-23.9-32.7c-0.5-0.7-1.3-2-2.3-4c-1.1-2-2.2-4.4-3.4-7.1c0.3,2.7,0.6,5,0.8,7c0.2,2,0.2,3.9,0.2,5.4v31.3
			H1206.3z"/>
		<path d="M1388.2,2002.2h-16.2v-63.3h18c7.1,0,12,0.3,14.9,1c2.9,0.7,5.3,1.9,7.3,3.5c2.3,1.9,4.1,4.3,5.3,7.2
			c1.2,2.9,1.8,6.1,1.8,9.7c0,3.8-0.6,7.1-1.8,10c-1.2,2.9-3,5.2-5.4,7.1c-1.8,1.4-3.9,2.4-6.3,3c-2.4,0.6-6.3,0.9-11.6,0.9h-2.9
			h-3.1V2002.2z M1388.2,1967.3h3.3c4.2,0,7-0.6,8.7-1.7c1.6-1.1,2.5-3.1,2.5-5.8c0-2.7-0.8-4.5-2.4-5.7c-1.6-1.1-4.5-1.7-8.6-1.7
			h-3.5V1967.3z"/>
		<path d="M1518.1,1938.8h17.2v30.8c0,4.5,0.1,7.8,0.3,9.8c0.2,2,0.6,3.6,1.2,5c0.7,1.6,1.8,2.8,3.5,3.7c1.6,0.9,3.6,1.3,6,1.3
			c2.4,0,4.4-0.4,6-1.3c1.6-0.9,2.8-2.1,3.5-3.7c0.5-1.3,0.9-3,1.2-5s0.3-5.2,0.3-9.8v-4.3v-26.5h17.2v33.5c0,6.9-0.4,12.1-1.3,15.4
			c-0.8,3.3-2.2,6.1-4.2,8.5c-2.2,2.6-5.1,4.5-8.9,5.8c-3.8,1.3-8.4,1.9-13.8,1.9c-5.4,0-10-0.6-13.8-1.9c-3.8-1.3-6.7-3.2-8.9-5.8
			c-2-2.3-3.4-5.2-4.2-8.5c-0.9-3.3-1.3-8.4-1.3-15.4v-6.6V1938.8z"/>
	</g>
</g>
</svg>
